<?xml version="1.0" standalone="no"?><!DOCTYPE svg PUBLIC "-//W3C//DTD SVG 1.1//EN" "http://www.w3.org/Graphics/SVG/1.1/DTD/svg11.dtd"><svg t="1772536713406" class="icon" viewBox="0 0 1024 1024" version="1.1" xmlns="http://www.w3.org/2000/svg" p-id="1101" xmlns:xlink="http://www.w3.org/1999/xlink" width="200" height="200"><path d="M512 128c59.278222 0 115.427556 13.425778 165.546667 37.432889L622.506667 220.444444a56.888889 56.888889 0 0 0-14.648889 55.182223l8.590222 31.573333 0.853333 2.986667a227.555556 227.555556 0 1 0 96.512 96.512l34.531556 9.415111a56.888889 56.888889 0 0 0 55.182222-14.648889l55.04-55.04A382.492444 382.492444 0 0 1 896 512c0 212.081778-171.918222 384-384 384S128 724.081778 128 512 299.918222 128 512 128z m0 213.333333c26.339556 0 51.313778 5.973333 73.585778 16.64l-113.806222 113.777778a56.888889 56.888889 0 0 0 0 80.497778l3.128888 2.844444a56.888889 56.888889 0 0 0 77.312-2.844444l113.806223-113.834667A170.666667 170.666667 0 1 1 512 341.333333z" fill="#3E5EFF" p-id="1102"></path><path d="M652.515556 331.292444l-17.208889-63.118222a28.444444 28.444444 0 0 1 7.310222-27.591111l111.786667-111.786667a14.222222 14.222222 0 0 1 23.779555 6.314667l23.722667 86.983111 86.983111 23.722667a14.222222 14.222222 0 0 1 6.314667 23.751111l-111.786667 111.786667a28.444444 28.444444 0 0 1-27.591111 7.338666l-63.089778-17.208889-160.625778 160.625778a28.444444 28.444444 0 1 1-40.220444-40.220444l160.625778-160.597334z" fill="#53E8F0" p-id="1103"></path></svg>